<?xml version="1.0" encoding="UTF-8"?><svg id="Layer_1" xmlns="http://www.w3.org/2000/svg" xmlns:xlink="http://www.w3.org/1999/xlink" viewBox="0 0 291.27 245.77"><defs><style>.cls-1{fill:url(#linear-gradient);}.cls-2{fill:#204098;}.cls-3{fill:url(#linear-gradient-2);}</style><linearGradient id="linear-gradient" x1="148.34" y1="130.36" x2="280.85" y2="206.87" gradientUnits="userSpaceOnUse"><stop offset="0" stop-color="#8bd7f8"/><stop offset=".28" stop-color="#8ad6f7" stop-opacity=".99"/><stop offset=".42" stop-color="#86d3f6" stop-opacity=".96"/><stop offset=".53" stop-color="#81cff3" stop-opacity=".91"/><stop offset=".62" stop-color="#79c9ef" stop-opacity=".83"/><stop offset=".7" stop-color="#6fc0ea" stop-opacity=".73"/><stop offset=".77" stop-color="#63b7e4" stop-opacity=".61"/><stop offset=".84" stop-color="#54abdd" stop-opacity=".47"/><stop offset=".91" stop-color="#439dd5" stop-opacity=".31"/><stop offset=".97" stop-color="#308ecc" stop-opacity=".12"/><stop offset="1" stop-color="#2484c6" stop-opacity="0"/></linearGradient><linearGradient id="linear-gradient-2" x1="88.83" y1="34.06" x2="249.63" y2="164.28" gradientUnits="userSpaceOnUse"><stop offset="0" stop-color="#daf0f7" stop-opacity="0"/><stop offset=".75" stop-color="#008aad"/></linearGradient></defs><ellipse class="cls-1" cx="214.6" cy="168.61" rx="76.68" ry="75.95"/><rect class="cls-3" x="104.52" y="6.05" width="129.41" height="186.25" rx="13.38" ry="13.38"/><text/><path class="cls-2" d="m94.45,223.1c1.38,6.1.65,11.02-2.2,14.77-2.85,3.75-6.37,6.18-10.54,7.3-3.95,1.06-7.96.71-12.04-1.06-4.08-1.76-7.18-5.22-9.31-10.36L16.78,71.08c-3.56-.28-6.84-1.39-9.84-3.32-3.01-1.92-4.94-4.51-5.81-7.76-1.37-5.1-.43-9.94,2.82-14.54,8.64-9.52,18.7-17.92,30.18-25.22,11.48-7.3,23.71-12.69,36.71-16.17C81.74,1.14,92.33-.2,102.59.02c10.26.24,20.2,2.54,29.83,6.91,11.8,5.04,20.96,11.4,27.5,19.08,6.54,7.69,11.05,16.16,13.53,25.43,1.99,7.42,2.76,14.97,2.34,22.66-.43,7.69-1.95,15.24-4.56,22.65-2.62,7.41-6.25,14.53-10.88,21.36-4.64,6.83-10.32,13.01-17.05,18.54l71.75,46.35c4.13,3.36,6.64,6.67,7.51,9.91,1.18,4.41.56,8.35-1.86,11.86-2.42,3.5-5.84,5.85-10.24,7.03-2.56.68-5.22.96-7.99.83-2.78-.13-5.51-1.08-8.22-2.83-2.77-1.99-8.08-5.54-15.91-10.66-7.84-5.11-16.38-10.54-25.63-16.27-9.25-5.73-17.85-11.13-25.8-16.22-7.96-5.08-13.17-8.53-15.65-10.36-10.41,4.78-20.92,8.72-31.54,11.81l14.74,55Zm22.2-187.29c-6.4-2.51-12.87-3.7-19.42-3.56-6.56.14-13.08,1.08-19.58,2.82-11.14,2.99-21.09,7.64-29.84,13.97l23.6,88.08c7.76-2.58,15.53-5.4,23.29-8.48,7.76-3.07,15.15-7.29,22.17-12.66,4.44-2.93,8.3-6.64,11.57-11.12,3.28-4.48,5.98-9.25,8.11-14.3,2.13-5.05,3.47-10.26,4.02-15.63.55-5.37.21-10.38-1.04-15.02-1.43-5.34-3.95-10.07-7.54-14.21-3.6-4.13-8.71-7.43-15.33-9.88Z"/></svg>